<?xml version="1.0" encoding="UTF-8"?>
<!DOCTYPE svg PUBLIC "-//W3C//DTD SVG 1.1//EN"
  "http://www.w3.org/Graphics/SVG/1.1/DTD/svg11.dtd">
<!-- Created with Inkpad (http://www.taptrix.com/) --><svg xmlns:inkpad="http://taptrix.com/inkpad/svg_extensions" height="34pt" xmlns:xlink="http://www.w3.org/1999/xlink" xmlns="http://www.w3.org/2000/svg" width="98pt" version="1.1" viewBox="0,0,98,34">
<defs/>
<g id="bisq_logo_green" inkpad:layerName="bisq_logo_green">
<g opacity="1">
<path d="M51.87+9.97762L55.642+9.97762L55.642+9.97762L55.642+24.1779L55.642+24.1779L51.87+24.1779L51.87+24.1779L51.87+9.97762L51.87+9.97762Z" opacity="1" fill="#25b135"/>
<path d="M63.5401+15.5495L62.1615+15.2472C61.262+15.0659+60.783+14.6425+60.783+14.037C60.783+13.4315+61.5021+12.948+62.4611+12.948C63.2356+12.8505+63.9848+13.2652+64.3196+13.9769L67.0171+12.1621C66.0657+10.6137+64.3862+9.67466+62.5811+9.6817C61.3467+9.66962+60.1365+10.0277+59.104+10.7106C58.0628+11.449+57.4205+12.6336+57.3655+13.9168C57.3059+16.0948+58.7441+17.7283+61.3217+18.4541C61.7415+18.5749+62.2211+18.696+62.7606+18.8174C63.9596+19.0612+64.1392+19.483+64.1392+19.9064C64.1392+20.6931+63.4201+21.1767+62.3411+21.1165C61.1594+21.1374+60.0677+20.4814+59.5228+19.4228L57.2463+21.418C58.2099+23.2821+60.1393+24.4318+62.2219+24.3828C65.099+24.443+67.4971+22.4469+67.5567+19.9666C67.5535+17.7267+66.1781+16.1541+63.5401+15.5495Z" opacity="1" fill="#25b135"/>
<path d="M43.4523+9.7584C42.1176+9.75265+40.8215+10.2069+39.7817+11.0448L39.7817+4.91808L36.1719+4.91808L36.1719+16.253C36.1413+16.5791+36.1413+16.9073+36.1719+17.2333L36.1719+17.4168C36.191+19.3638+36.9577+21.2288+38.313+22.625C39.4645+23.7388+40.9457+24.4484+42.5343+24.6473L43.4523+24.6473C45.3744+24.6661+47.2243+23.9159+48.5918+22.5633C50+21.1271+50.7717+19.1839+50.7329+17.1715C50.7429+15.1645+49.9754+13.2319+48.5918+11.7798C47.1957+10.4792+45.3592+9.75684+43.4523+9.7584ZM43.5132+21.3378C43.3074+21.351+43.1008+21.3305+42.9016+21.2769L42.7792+21.2769C42.7104+21.2862+42.6413+21.2631+42.5918+21.2143C41.1139+20.9106+39.9868+19.7081+39.7776+18.2119C39.7031+17.8693+39.6621+17.5204+39.6551+17.1699C39.5981+16.117+39.9699+15.086+40.6856+14.3126C41.4013+13.5392+42.3996+13.0894+43.4523+13.0662C46.2058+13.0662+47.1846+15.2102+47.1846+17.1715C47.1846+19.1938+46.2666+21.2769+43.514+21.3378L43.5132+21.3378Z" opacity="1" fill="#25b135"/>
<path d="M82.8261+16.89C82.807+14.9489+82.0391+13.0897+80.6816+11.6978C79.5283+10.5874+78.0447+9.88003+76.4537+9.68176L75.5342+9.68176C73.6092+9.66281+71.7564+10.4103+70.3866+11.7585C68.9762+13.1903+68.2033+15.1275+68.2422+17.1336C68.2321+19.1345+69.0008+21.0613+70.3866+22.5088C71.7564+23.8569+73.6092+24.6044+75.5342+24.5855C76.8709+24.5912+78.1691+24.1384+79.2106+23.303L79.2106+29.4109L82.8261+29.4109L82.8261+16.89ZM75.4115+21.1697C72.6538+21.1697+71.6732+19.0323+71.6732+17.077C71.6732+15.1217+72.6538+12.9843+75.3497+12.9843C75.5558+12.9711+75.7627+12.9916+75.9622+13.045L76.0848+13.045C76.1521+13.0366+76.2195+13.0589+76.2684+13.1057C78.0106+13.4966+79.2385+15.0521+79.2098+16.8317L79.2098+17.0779C79.2886+18.1321+78.9242+19.1716+78.2039+19.9476C77.4836+20.7236+76.4721+21.1663+75.4115+21.1697Z" opacity="1" fill="#25b135"/>
</g>
<path d="M28.5897+9.73765C29.3656+11.4278+29.5303+11.7768+30.1252+13.4956C30.4668+14.5754+29.7826+16.1747+26.9619+14.8153C24.953+13.8558+23.4996+13.1761+24.6966+11.5768C25.28+10.8008+25.9404+10.078+26.6691+9.41818C27.4446+8.7396+27.9249+8.31194+28.5897+9.73765ZM27.9209+20.5633C29.3983+19.1077+31.4509+20.7361+30.0171+22.69C27.1283+26.6467+22.085+28.2245+17.566+26.6347C13.0471+25.0449+9.9992+20.6979+10.0001+15.7252C9.98871+12.746+10.975+10.2601+12.8597+8.02079C14.6737+5.98704+17.3744+4.35746+20.0379+4.32266C23.782+4.32266+25.4548+7.60407+24.1362+9.43391C22.6627+11.4685+20.9493+11.3031+19.6751+10.4305C19.6751+10.4305+17.922+9.18475+17.4044+8.76915C16.6072+8.14676+15.7307+8.14676+15.4124+9.14339C14.8551+10.9289+14.5765+12.0506+14.1382+13.836C13.9343+14.7344+13.8276+15.6536+13.8199+16.5767C13.8291+18.276+14.5762+19.8796+15.8516+20.9375C16.7323+21.7663+17.6783+22.5164+18.6796+23.1799C19.4857+23.731+20.4247+24.0334+21.3885+24.0524L21.4679+24.0524C22.4316+24.0334+23.3706+23.731+24.1768+23.1799C25.4788+22.3948+26.7296+21.5207+27.9209+20.5633ZM17.3876+18.5056C16.8563+18.3106+15.6535+17.2589+16.0069+16.4788C16.1487+16.05+17.1753+15.9337+17.4934+15.9337C19.3703+15.8948+19.4408+19.2468+17.3876+18.5056ZM20.6887+22.077C20.4489+21.8616+20.0092+21.4309+19.6094+21.0718C19.4987+20.9514+19.4773+20.7836+19.555+20.6439C19.6327+20.5041+19.7948+20.4187+19.9685+20.4258C20.6738+20.39+21.3809+20.39+22.0862+20.4258C22.2499+20.4379+22.3915+20.5328+22.451+20.6703C22.5105+20.8077+22.4774+20.9636+22.3658+21.0718C21.9668+21.4309+21.5272+21.8616+21.3273+22.077C21.2405+22.1489+21.126+22.1877+21.0079+22.185C20.8899+22.1877+20.7754+22.1489+20.6887+22.077ZM24.8983+18.5056C22.8452+19.2468+22.9158+15.8948+24.7926+15.9337C25.1107+15.9337+26.102+16.05+26.2792+16.4788C26.6325+17.2589+25.4297+18.3106+24.8983+18.5056Z" opacity="1" fill="#25b135"/>
</g>
</svg>
